<?xml version="1.0" encoding="UTF-8" standalone="no"?>
<svg
   width="430.59mm"
   height="212.972mm"
   viewBox="0 0 1220.5706 603.69994"
   version="1.2"
   id="svg270"
   sodipodi:docname="PRAMEF4.AluInsertion.svg"
   inkscape:version="1.3.2 (1:1.3.2+202311252150+091e20ef0f)"
   xmlns:inkscape="http://www.inkscape.org/namespaces/inkscape"
   xmlns:sodipodi="http://sodipodi.sourceforge.net/DTD/sodipodi-0.dtd"
   xmlns="http://www.w3.org/2000/svg"
   xmlns:svg="http://www.w3.org/2000/svg"
   xmlns:rdf="http://www.w3.org/1999/02/22-rdf-syntax-ns#"
   xmlns:cc="http://creativecommons.org/ns#"
   xmlns:dc="http://purl.org/dc/elements/1.1/">
  <sodipodi:namedview
     id="namedview270"
     pagecolor="#ffffff"
     bordercolor="#000000"
     borderopacity="0.25"
     inkscape:showpageshadow="2"
     inkscape:pageopacity="0.0"
     inkscape:pagecheckerboard="0"
     inkscape:deskcolor="#d1d1d1"
     inkscape:document-units="mm"
     inkscape:zoom="0.37521557"
     inkscape:cx="634.30203"
     inkscape:cy="191.88969"
     inkscape:window-width="1920"
     inkscape:window-height="1016"
     inkscape:window-x="0"
     inkscape:window-y="0"
     inkscape:window-maximized="1"
     inkscape:current-layer="svg270" />
  <title
     id="title1">Qt SVG Document</title>
  <desc
     id="desc1">Generated with Qt</desc>
  <defs
     id="defs1" />
  <path
     vector-effect="none"
     fill-rule="evenodd"
     d="m 503.23197,13.89406 c 3.73344,0.0301 2.37377,10.9682 6.08123,11.40523"
     id="path6"
     style="font-style:normal;font-weight:400;font-size:9px;font-family:'Sans Serif';fill:none;stroke:#000000;stroke-width:1.12002;stroke-linecap:round;stroke-linejoin:bevel;stroke-opacity:0.705882" />
  <path
     vector-effect="none"
     fill-rule="evenodd"
     d="m 522.06876,6.8137399 c 3.69939,0.50311 3.04333,9.3532601 6.69509,10.1308001"
     id="path9"
     style="font-style:normal;font-weight:400;font-size:9px;font-family:'Sans Serif';fill:none;stroke:#000000;stroke-width:1.12002;stroke-linecap:round;stroke-linejoin:bevel;stroke-opacity:0.705882" />
  <path
     vector-effect="none"
     fill-rule="evenodd"
     d="m 563.72682,17.56971 c 3.63957,0.83433 2.19202,8.05947 5.80951,8.9811"
     id="path12"
     style="font-style:normal;font-weight:400;font-size:9px;font-family:'Sans Serif';fill:none;stroke:#000000;stroke-width:1.12002;stroke-linecap:round;stroke-linejoin:bevel;stroke-opacity:0.705882" />
  <path
     vector-effect="none"
     fill-rule="evenodd"
     d="m 759.63728,310.99149 c 0.0833,3.73271 -4.17507,7.25643 -7.02591,9.66685"
     id="path15"
     style="font-style:normal;font-weight:400;font-size:9px;font-family:'Sans Serif';fill:none;stroke:#000000;stroke-width:1.12002;stroke-linecap:round;stroke-linejoin:bevel;stroke-opacity:0.705882" />
  <path
     vector-effect="none"
     fill-rule="evenodd"
     d="m 381.90334,541.36996 c -3.58928,1.02754 1.25283,11.97398 -2.41727,12.66133"
     id="path18"
     style="font-style:normal;font-weight:400;font-size:9px;font-family:'Sans Serif';fill:none;stroke:#000000;stroke-width:1.12002;stroke-linecap:round;stroke-linejoin:bevel;stroke-opacity:0.705882" />
  <path
     vector-effect="none"
     fill-rule="evenodd"
     d="m 391.18127,562.0335 c -3.61576,0.93023 -8.0251,-8.68956 -11.6952,-8.00221"
     id="path21"
     style="font-style:normal;font-weight:400;font-size:9px;font-family:'Sans Serif';fill:none;stroke:#000000;stroke-width:1.12002;stroke-linecap:round;stroke-linejoin:bevel;stroke-opacity:0.705882" />
  <path
     vector-effect="none"
     fill-rule="evenodd"
     d="m 844.97964,420.83893 c -2.63584,-2.64487 4.68072,-10.43577 1.72738,-12.7261"
     id="path24"
     style="font-style:normal;font-weight:400;font-size:9px;font-family:'Sans Serif';fill:none;stroke:#000000;stroke-width:1.12002;stroke-linecap:round;stroke-linejoin:bevel;stroke-opacity:0.705882" />
  <path
     vector-effect="none"
     fill-rule="evenodd"
     d="m 404.49813,547.44014 c -3.52734,1.22304 -0.59252,11.31939 -4.20828,12.24962"
     id="path27"
     style="font-style:normal;font-weight:400;font-size:9px;font-family:'Sans Serif';fill:none;stroke:#000000;stroke-width:1.12002;stroke-linecap:round;stroke-linejoin:bevel;stroke-opacity:0.705882" />
  <path
     vector-effect="none"
     fill-rule="evenodd"
     d="m 569.53633,26.55081 c -3.61749,-0.92163 -5.36173,7.88849 -9.02588,7.17108"
     id="path30"
     style="font-style:normal;font-weight:400;font-size:9px;font-family:'Sans Serif';fill:none;stroke:#000000;stroke-width:1.12002;stroke-linecap:round;stroke-linejoin:bevel;stroke-opacity:0.705882" />
  <path
     vector-effect="none"
     fill-rule="evenodd"
     d="m 719.35262,348.27309 c -2.89415,2.35858 -5.93133,4.76893 -8.83762,7.11271"
     id="path33"
     style="font-style:normal;font-weight:400;font-size:9px;font-family:'Sans Serif';fill:none;stroke:#000000;stroke-width:1.12002;stroke-linecap:round;stroke-linejoin:bevel;stroke-opacity:0.705882" />
  <path
     vector-effect="none"
     fill-rule="evenodd"
     d="m 863.30844,423.71184 c -2.63921,-2.63905 -13.64808,-13.30868 -16.60142,-15.59901"
     id="path36"
     style="font-style:normal;font-weight:400;font-size:9px;font-family:'Sans Serif';fill:none;stroke:#000000;stroke-width:1.12002;stroke-linecap:round;stroke-linejoin:bevel;stroke-opacity:0.705882" />
  <path
     vector-effect="none"
     fill-rule="evenodd"
     d="m 578.5076,28.83622 c 3.61814,0.92201 6.19691,-5.92323 9.72749,-4.70851"
     id="path39"
     style="font-style:normal;font-weight:400;font-size:9px;font-family:'Sans Serif';fill:none;stroke:#000000;stroke-width:1.12002;stroke-linecap:round;stroke-linejoin:bevel;stroke-opacity:0.705882" />
  <path
     vector-effect="none"
     fill-rule="evenodd"
     d="m 679.27687,370.84381 c -2.92772,2.3167 0.61625,8.95369 -2.33721,11.23736"
     id="path42"
     style="font-style:normal;font-weight:400;font-size:9px;font-family:'Sans Serif';fill:none;stroke:#000000;stroke-width:1.12002;stroke-linecap:round;stroke-linejoin:bevel;stroke-opacity:0.705882" />
  <path
     vector-effect="none"
     fill-rule="evenodd"
     d="m 266.36663,550.58931 c -3.59077,-1.02437 -6.21103,11.15613 -9.88638,10.50126"
     id="path45"
     style="font-style:normal;font-weight:400;font-size:9px;font-family:'Sans Serif';fill:none;stroke:#000000;stroke-width:1.12002;stroke-linecap:round;stroke-linejoin:bevel;stroke-opacity:0.705882" />
  <path
     vector-effect="none"
     fill-rule="evenodd"
     d="m 863.30844,423.71184 c -2.63921,-2.63905 -9.42223,6.06313 -12.05844,3.41891"
     id="path48"
     style="font-style:normal;font-weight:400;font-size:9px;font-family:'Sans Serif';fill:none;stroke:#000000;stroke-width:1.12002;stroke-linecap:round;stroke-linejoin:bevel;stroke-opacity:0.705882" />
  <path
     vector-effect="none"
     fill-rule="evenodd"
     d="m 551.68458,31.99441 c -3.6635,-0.71703 -2.67898,-10.7377 -6.33037,-11.51588"
     id="path51"
     style="font-style:normal;font-weight:400;font-size:9px;font-family:'Sans Serif';fill:none;stroke:#000000;stroke-width:1.12002;stroke-linecap:round;stroke-linejoin:bevel;stroke-opacity:0.705882" />
  <path
     vector-effect="none"
     fill-rule="evenodd"
     d="m 700.46603,363.48904 c -2.9063,2.34378 3.63077,16.49291 0.69717,18.80189"
     id="path54"
     style="font-style:normal;font-weight:400;font-size:9px;font-family:'Sans Serif';fill:none;stroke:#000000;stroke-width:1.12002;stroke-linecap:round;stroke-linejoin:bevel;stroke-opacity:0.705882" />
  <path
     vector-effect="none"
     fill-rule="evenodd"
     d="m 245.17164,559.07452 c -3.67562,-0.65589 -2.25298,-10.89221 -5.86591,-11.83363"
     id="path57"
     style="font-style:normal;font-weight:400;font-size:9px;font-family:'Sans Serif';fill:none;stroke:#000000;stroke-width:1.12002;stroke-linecap:round;stroke-linejoin:bevel;stroke-opacity:0.705882" />
  <path
     vector-effect="none"
     fill-rule="evenodd"
     d="m 545.35421,20.47853 c 3.65139,0.77818 5.18282,-5.93329 8.82175,-5.09934"
     id="path60"
     style="font-style:normal;font-weight:400;font-size:9px;font-family:'Sans Serif';fill:none;stroke:#000000;stroke-width:1.12002;stroke-linecap:round;stroke-linejoin:bevel;stroke-opacity:0.705882" />
  <path
     vector-effect="none"
     fill-rule="evenodd"
     d="m 692.98504,388.72685 c -2.93425,2.30861 -13.09192,-8.92935 -16.04538,-6.64568"
     id="path63"
     style="font-style:normal;font-weight:400;font-size:9px;font-family:'Sans Serif';fill:none;stroke:#000000;stroke-width:1.12002;stroke-linecap:round;stroke-linejoin:bevel;stroke-opacity:0.705882" />
  <path
     vector-effect="none"
     fill-rule="evenodd"
     d="m 700.46603,363.48904 c -2.9063,2.34378 -10.11324,-1.40572 -13.04123,0.90997"
     id="path66"
     style="font-style:normal;font-weight:400;font-size:9px;font-family:'Sans Serif';fill:none;stroke:#000000;stroke-width:1.12002;stroke-linecap:round;stroke-linejoin:bevel;stroke-opacity:0.705882" />
  <path
     vector-effect="none"
     fill-rule="evenodd"
     d="m 758.23236,262.70441 c -0.13529,-3.73088 6.32809,-4.92657 5.83467,-8.62758"
     id="path69"
     style="font-style:normal;font-weight:400;font-size:9px;font-family:'Sans Serif';fill:none;stroke:#000000;stroke-width:1.12002;stroke-linecap:round;stroke-linejoin:bevel;stroke-opacity:0.705882" />
  <path
     vector-effect="none"
     fill-rule="evenodd"
     d="m 754.22804,235.43535 c 1.09842,3.5682 -4.14809,7.1547 -3.65903,10.85579"
     id="path72"
     style="font-style:normal;font-weight:400;font-size:9px;font-family:'Sans Serif';fill:none;stroke:#000000;stroke-width:1.12002;stroke-linecap:round;stroke-linejoin:bevel;stroke-opacity:0.705882" />
  <path
     vector-effect="none"
     fill-rule="evenodd"
     d="m 591.69965,434.37713 c -3.06281,2.13578 3.04404,9.96287 -0.011,12.10916"
     id="path75"
     style="font-style:normal;font-weight:400;font-size:9px;font-family:'Sans Serif';fill:none;stroke:#000000;stroke-width:1.12002;stroke-linecap:round;stroke-linejoin:bevel;stroke-opacity:0.705882" />
  <path
     vector-effect="none"
     fill-rule="evenodd"
     d="m 503.23197,13.89406 c 3.73344,0.0301 5.83586,-8.8486601 9.53525,-8.3455501"
     id="path78"
     style="font-style:normal;font-weight:400;font-size:9px;font-family:'Sans Serif';fill:none;stroke:#000000;stroke-width:1.12002;stroke-linecap:round;stroke-linejoin:bevel;stroke-opacity:0.705882" />
  <path
     vector-effect="none"
     fill-rule="evenodd"
     d="m 281.51976,563.93787 c -3.73321,0.01 -1.80638,-9.54029 -5.39651,-10.56429"
     id="path81"
     style="font-style:normal;font-weight:400;font-size:9px;font-family:'Sans Serif';fill:none;stroke:#000000;stroke-width:1.12002;stroke-linecap:round;stroke-linejoin:bevel;stroke-opacity:0.705882" />
  <path
     vector-effect="none"
     fill-rule="evenodd"
     d="m 518.40786,26.37049 c 3.7081,0.4374 6.70423,-10.20349 10.35599,-9.42595"
     id="path84"
     style="font-style:normal;font-weight:400;font-size:9px;font-family:'Sans Serif';fill:none;stroke:#000000;stroke-width:1.12002;stroke-linecap:round;stroke-linejoin:bevel;stroke-opacity:0.705882" />
  <path
     vector-effect="none"
     fill-rule="evenodd"
     d="m 602.47283,445.61608 c -2.96155,2.27381 -7.72914,-1.27608 -10.78423,0.87021"
     id="path87"
     style="font-style:normal;font-weight:400;font-size:9px;font-family:'Sans Serif';fill:none;stroke:#000000;stroke-width:1.12002;stroke-linecap:round;stroke-linejoin:bevel;stroke-opacity:0.705882" />
  <path
     vector-effect="none"
     fill-rule="evenodd"
     d="m 762.92954,245.55383 c -0.49343,-3.70102 -7.60308,-6.55028 -8.7015,-10.11848"
     id="path90"
     style="font-style:normal;font-weight:400;font-size:9px;font-family:'Sans Serif';fill:none;stroke:#000000;stroke-width:1.12002;stroke-linecap:round;stroke-linejoin:bevel;stroke-opacity:0.705882" />
  <path
     vector-effect="none"
     fill-rule="evenodd"
     d="m 230.50595,544.94693 c -3.61293,-0.94142 -6.49886,8.85814 -9.95044,7.4355"
     id="path93"
     style="font-style:normal;font-weight:400;font-size:9px;font-family:'Sans Serif';fill:none;stroke:#000000;stroke-width:1.12002;stroke-linecap:round;stroke-linejoin:bevel;stroke-opacity:0.705882" />
  <path
     vector-effect="none"
     fill-rule="evenodd"
     d="m 262.49624,577.52048 c -3.72351,-0.27375 -2.34064,-15.77504 -6.01599,-16.42991"
     id="path96"
     style="font-style:normal;font-weight:400;font-size:9px;font-family:'Sans Serif';fill:none;stroke:#000000;stroke-width:1.12002;stroke-linecap:round;stroke-linejoin:bevel;stroke-opacity:0.705882" />
  <path
     vector-effect="none"
     fill-rule="evenodd"
     d="m 281.51976,563.93787 c -3.73321,0.01 -5.03192,14.60884 -8.7558,14.33573"
     id="path99"
     style="font-style:normal;font-weight:400;font-size:9px;font-family:'Sans Serif';fill:none;stroke:#000000;stroke-width:1.12002;stroke-linecap:round;stroke-linejoin:bevel;stroke-opacity:0.705882" />
  <path
     vector-effect="none"
     fill-rule="evenodd"
     d="m 583.92717,39.00314 c -3.53388,-1.20455 -1.80143,-9.24491 -5.41957,-10.16692"
     id="path102"
     style="font-style:normal;font-weight:400;font-size:9px;font-family:'Sans Serif';fill:none;stroke:#000000;stroke-width:1.12002;stroke-linecap:round;stroke-linejoin:bevel;stroke-opacity:0.705882" />
  <path
     vector-effect="none"
     fill-rule="evenodd"
     d="m 760.04219,327.36599 c -2.72734,-2.54946 -4.57998,-9.11807 -7.43082,-6.70765"
     id="path105"
     style="font-style:normal;font-weight:400;font-size:9px;font-family:'Sans Serif';fill:none;stroke:#000000;stroke-width:1.12002;stroke-linecap:round;stroke-linejoin:bevel;stroke-opacity:0.705882" />
  <path
     vector-effect="none"
     fill-rule="evenodd"
     d="m 614.38234,429.85471 c -2.98039,2.24824 -1.07623,7.44366 -4.03778,9.71747"
     id="path108"
     style="font-style:normal;font-weight:400;font-size:9px;font-family:'Sans Serif';fill:none;stroke:#000000;stroke-width:1.12002;stroke-linecap:round;stroke-linejoin:bevel;stroke-opacity:0.705882" />
  <path
     vector-effect="none"
     fill-rule="evenodd"
     d="m 759.63728,310.99149 c 0.0833,3.73271 16.21694,6.54313 19.65688,5.09258"
     id="path111"
     style="font-style:normal;font-weight:400;font-size:9px;font-family:'Sans Serif';fill:none;stroke:#000000;stroke-width:1.12002;stroke-linecap:round;stroke-linejoin:bevel;stroke-opacity:0.705882" />
  <path
     vector-effect="none"
     fill-rule="evenodd"
     d="m 614.38234,429.85471 c -2.98039,2.24824 -11.49603,-3.27913 -14.55847,-1.14399"
     id="path114"
     style="font-style:normal;font-weight:400;font-size:9px;font-family:'Sans Serif';fill:none;stroke:#000000;stroke-width:1.12002;stroke-linecap:round;stroke-linejoin:bevel;stroke-opacity:0.705882" />
  <path
     vector-effect="none"
     fill-rule="evenodd"
     d="m 596.89178,27.10674 c 3.52994,1.21434 1.74744,8.12987 5.07088,9.83036"
     id="path117"
     style="font-style:normal;font-weight:400;font-size:9px;font-family:'Sans Serif';fill:none;stroke:#000000;stroke-width:1.12002;stroke-linecap:round;stroke-linejoin:bevel;stroke-opacity:0.705882" />
  <path
     vector-effect="none"
     fill-rule="evenodd"
     d="m 601.96266,36.9371 c -3.32344,-1.70049 -6.04301,6.15214 -9.57727,4.94824"
     id="path120"
     style="font-style:normal;font-weight:400;font-size:9px;font-family:'Sans Serif';fill:none;stroke:#000000;stroke-width:1.12002;stroke-linecap:round;stroke-linejoin:bevel;stroke-opacity:0.705882" />
  <path
     vector-effect="none"
     fill-rule="evenodd"
     d="m 245.17164,559.07452 c -3.67562,-0.65589 -6.81777,7.39897 -10.41082,6.38449"
     id="path123"
     style="font-style:normal;font-weight:400;font-size:9px;font-family:'Sans Serif';fill:none;stroke:#000000;stroke-width:1.12002;stroke-linecap:round;stroke-linejoin:bevel;stroke-opacity:0.705882" />
  <path
     vector-effect="none"
     fill-rule="evenodd"
     d="m 225.7884,562.9253 c -3.59305,-1.01448 -1.78131,-9.12023 -5.23289,-10.54287"
     id="path126"
     style="font-style:normal;font-weight:400;font-size:9px;font-family:'Sans Serif';fill:none;stroke:#000000;stroke-width:1.12002;stroke-linecap:round;stroke-linejoin:bevel;stroke-opacity:0.705882" />
  <path
     vector-effect="none"
     fill-rule="evenodd"
     d="m 404.49813,547.44014 c -3.52734,1.22304 -10.13596,-9.63512 -13.72524,-8.60758"
     id="path129"
     style="font-style:normal;font-weight:400;font-size:9px;font-family:'Sans Serif';fill:none;stroke:#000000;stroke-width:1.12002;stroke-linecap:round;stroke-linejoin:bevel;stroke-opacity:0.705882" />
  <path
     vector-effect="none"
     fill-rule="evenodd"
     d="m 751.78357,255.48262 c 0.48972,3.70146 6.3135,3.49091 6.44879,7.22179"
     id="path132"
     style="font-style:normal;font-weight:400;font-size:9px;font-family:'Sans Serif';fill:none;stroke:#000000;stroke-width:1.12002;stroke-linecap:round;stroke-linejoin:bevel;stroke-opacity:0.705882" />
  <path
     vector-effect="none"
     fill-rule="nonzero"
     d="m 613.75496,444.01432 -7.87173,6.0439 -6.82117,-8.88363 7.8721,-6.04454 6.8208,8.88427"
     id="path135"
     style="font-style:normal;font-weight:400;font-size:9px;font-family:'Sans Serif';fill:#bebebe;fill-opacity:1;stroke:none;stroke-width:0.746679;stroke-linecap:square;stroke-linejoin:bevel" />
  <path
     vector-effect="none"
     fill-rule="nonzero"
     d="m 218.42072,557.55974 -18.43533,-7.60102 c -0.0734,-0.0296 -0.14708,-0.0619 -0.21829,-0.0954 l -0.002,-0.001 -18.68543,-8.66051 c -0.10447,-0.0476 -0.20799,-0.0998 -0.31029,-0.15554 l -6.4e-4,-3.8e-4 -17.98291,-9.73345 c -0.0473,-0.0256 -0.0942,-0.0519 -0.14133,-0.0793 -0.062,-0.0359 -0.12304,-0.0721 -0.18228,-0.10988 v 0 l -16.91051,-10.67329 c -0.1098,-0.0696 -0.21645,-0.14175 -0.31762,-0.21588 l 6.5e-4,3.8e-4 -15.76357,-11.53026 c -0.1044,-0.076 -0.2037,-0.15335 -0.29881,-0.23346 l 0.002,10e-5 -14.61325,-12.28432 c -0.0948,-0.0791 -0.18458,-0.15954 -0.27024,-0.24107 l 0.001,-9.2e-4 -13.48737,-12.91274 c -0.0838,-0.0788 -0.16255,-0.15886 -0.23756,-0.23941 l 0.002,-5.4e-4 -12.413419,-13.40384 c -0.072,-0.0753 -0.13822,-0.15168 -0.20242,-0.22855 l 0.002,-5.5e-4 -11.41438,-13.75367 c -0.06,-0.0693 -0.11459,-0.13885 -0.1678,-0.20937 l 0.002,-5.4e-4 -10.5059,-13.96354 c -0.0474,-0.0611 -0.0918,-0.12307 -0.13451,-0.1849 l 0.001,-2.8e-4 -9.69164,-14.03901 c -0.0379,-0.0522 -0.0726,-0.10415 -0.10578,-0.15704 l 10e-4,-2.7e-4 -8.97243,-13.98315 c -0.0288,-0.0426 -0.0556,-0.0857 -0.0818,-0.12847 l 10e-4,-2.8e-4 -8.33188,-13.79595 c -0.0213,-0.0348 -0.0419,-0.0692 -0.0613,-0.10279 l 0.001,-2.7e-4 -7.748317,-13.47178 c -0.01655,-0.0268 -0.03176,-0.0538 -0.04665,-0.0805 l 8.91e-4,-3.5e-4 -7.18578,-12.98807 c -0.01269,-0.0211 -0.02422,-0.0425 -0.03543,-0.0637 l 8.26e-4,-3.8e-4 -6.607811,-12.31768 c -0.01064,-0.0174 -0.01976,-0.0356 -0.02906,-0.0531 l 8.26e-4,-3.8e-4 -6.343175,-12.1368 9.926395,-5.18783 6.343177,12.1368 -4.963386,2.59424 4.934713,-2.64709 6.607811,12.31768 -4.934712,2.64708 4.900172,-2.7111 7.18578,12.98807 -4.90004,2.71118 4.85448,-2.79192 7.7476,13.47136 -4.85448,2.79192 4.79423,-2.89498 8.33188,13.79596 -4.79359,2.89535 4.71321,-3.02474 8.97179,13.98277 -4.71321,3.02475 4.60845,-3.18206 9.69228,14.03939 -4.60807,3.18141 4.47458,-3.36659 10.50552,13.96419 -4.47523,3.36621 4.30946,-3.57612 11.414379,13.75368 -4.30946,3.57612 4.10907,-3.80521 12.41305,13.40449 -4.10806,3.80494 3.87254,-4.04489 13.487,12.91339 -3.87318,4.04451 3.60434,-4.2865 14.61223,12.28458 -3.60332,4.28624 3.30553,-4.51997 15.76357,11.53026 -3.30617,4.51959 2.9892,-4.7351 16.91051,10.67329 -2.9892,4.7351 2.66596,-4.9249 17.98355,9.73383 -2.66596,4.9249 2.35503,-5.08082 18.68543,8.66051 -2.35503,5.08081 2.1348,-5.1773 18.43532,7.60101 -4.26959,10.35462"
     id="path139"
     style="font-style:normal;font-weight:400;font-size:9px;font-family:'Sans Serif';fill:#55aaff;fill-opacity:1;stroke:none;stroke-width:0.746679;stroke-linecap:square;stroke-linejoin:bevel" />
  <path
     vector-effect="none"
     fill-rule="evenodd"
     d="m 97.741798,443.30805 v 4.19009 h 1.906406 c 0.688316,0 1.224536,-0.18203 1.608476,-0.54608 0.38396,-0.36408 0.57587,-0.88371 0.57587,-1.5589 0,-0.66193 -0.19191,-1.17494 -0.57587,-1.539 -0.38394,-0.36407 -0.92016,-0.54611 -1.608476,-0.54611 H 97.741798 M 96.2524,442.07683 h 3.395804 c 1.244356,0 2.184346,0.28132 2.819806,0.84397 0.63546,0.56267 0.9532,1.38679 0.9532,2.47236 0,1.09883 -0.31774,1.92956 -0.9532,2.49222 -0.63546,0.56265 -1.57545,0.84397 -2.819806,0.84397 h -1.906406 v 4.46813 H 96.2524 v -11.12065 m 14.45683,5.89791 c 0.31774,0.11916 0.63216,0.35745 0.94329,0.7149 0.31111,0.35745 0.61893,0.84729 0.92333,1.46951 l 1.52918,3.03833 h -1.62845 l -1.40997,-2.8596 c -0.3706,-0.74137 -0.72811,-1.23451 -1.07228,-1.47944 -0.34416,-0.24492 -0.81415,-0.36739 -1.40997,-0.36739 h -1.64827 v 4.70643 h -1.48927 v -11.12065 h 3.39567 c 1.27093,0 2.21751,0.26477 2.83977,0.79433 0.62224,0.52956 0.93336,1.33051 0.93336,2.40285 0,0.70167 -0.16217,1.28417 -0.4865,1.74752 -0.32435,0.46339 -0.79764,0.78111 -1.41989,0.95321 m -3.77314,-4.66669 v 3.95178 h 1.9064 c 0.71489,0 1.25771,-0.16878 1.62844,-0.50637 0.37072,-0.33759 0.55604,-0.83075 0.55604,-1.47945 0,-0.6487 -0.18532,-1.13853 -0.55604,-1.46952 -0.37073,-0.33096 -0.91355,-0.49644 -1.62844,-0.49644 h -1.9064 m 12.17322,0.25814 -2.04544,5.52061 h 4.09075 l -2.04531,-5.52061 m -0.85393,-1.48936 h 1.70774 l 4.22991,11.12065 h -1.56882 l -1.01282,-2.8596 h -5.00429 l -1.0128,2.8596 h -1.58866 l 4.24974,-11.12065 m 7.56597,0 h 2.22413 l 2.83976,7.56601 2.85961,-7.56601 h 2.24396 v 11.12065 h -1.46947 v -9.77028 l -2.85958,7.62559 h -1.52919 l -2.85959,-7.62559 v 9.77028 h -1.44963 v -11.12065 m 13.14622,0 h 7.02982 v 1.27093 h -5.54045 v 3.29648 h 5.30216 v 1.25107 h -5.30216 v 4.03124 h 5.6596 v 1.27093 h -7.14897 v -11.12065 m 9.63127,0 h 6.37451 v 1.27093 h -4.88513 v 3.27661 h 4.40853 v 1.27094 h -4.40853 v 5.30217 h -1.48938 v -11.12065 m 13.00721,1.31064 -3.79297,5.93763 h 3.79297 v -5.93763 m -0.37735,-1.31064 h 1.88657 v 7.24827 h 1.58867 v 1.25109 h -1.58867 v 2.62129 h -1.50922 v -2.62129 h -5.00432 v -1.44966 l 4.62697,-7.0497 m 6.09653,9.2341 h 1.56884 v 1.88655 h -1.56884 v -1.88655 m 0,-5.9972 h 1.56884 v 1.88654 h -1.56884 v -1.88654 m 13.16608,-2.383 v 1.58867 c -0.50317,-0.47661 -1.04267,-0.83074 -1.61854,-1.06241 -0.57584,-0.23168 -1.18818,-0.34753 -1.83687,-0.34753 -1.27093,0 -2.24395,0.39056 -2.91919,1.17164 -0.67512,0.7811 -1.01269,1.9064 -1.01269,3.37591 0,1.45628 0.33757,2.57497 1.01269,3.35605 0.67524,0.78109 1.64826,1.17165 2.91919,1.17165 0.64869,0 1.26103,-0.11917 1.83687,-0.35747 0.57587,-0.23828 1.11537,-0.58913 1.61854,-1.05248 v 1.56881 c -0.52961,0.35745 -1.08893,0.62553 -1.67815,0.80427 -0.58906,0.17872 -1.20801,0.26808 -1.85668,0.26808 -1.68133,0 -3.00856,-0.51631 -3.98157,-1.54895 -0.97304,-1.03264 -1.45955,-2.43595 -1.45955,-4.20996 0,-1.78725 0.48651,-3.19719 1.45955,-4.22981 0.97301,-1.03264 2.30024,-1.54895 3.98157,-1.54895 0.66189,0 1.28744,0.0893 1.87664,0.2681 0.58908,0.17872 1.1418,0.44018 1.65819,0.78438 m 3.81279,0.37732 v 8.65821 h 1.82697 c 1.53566,0 2.65764,-0.34752 3.36593,-1.04255 0.70828,-0.69505 1.06237,-1.79718 1.06237,-3.30643 0,-1.48272 -0.35409,-2.57163 -1.06237,-3.26668 -0.70829,-0.69503 -1.83027,-1.04255 -3.36593,-1.04255 h -1.82697 m -1.4894,-1.23122 h 3.07806 c 2.15791,0 3.73996,0.44681 4.74603,1.34045 1.0062,0.89361 1.50924,2.29362 1.50924,4.2 0,1.91965 -0.50634,3.32959 -1.51914,4.22983 -1.01281,0.90025 -2.59144,1.35037 -4.73613,1.35037 h -3.07806 v -11.12065 m 18.3887,0.35746 v 1.46951 c -0.56924,-0.26478 -1.10545,-0.46667 -1.60849,-0.60568 -0.50303,-0.13905 -0.99284,-0.20852 -1.46944,-0.20852 -0.82089,0 -1.45306,0.15887 -1.89649,0.47659 -0.44356,0.31774 -0.66533,0.77449 -0.66533,1.37024 0,0.48985 0.14896,0.86051 0.44685,1.11206 0.29791,0.25155 0.85726,0.45012 1.67802,0.59575 l 0.91355,0.19858 c 1.11206,0.21183 1.93613,0.58582 2.47234,1.12199 0.53607,0.53618 0.80424,1.25439 0.80424,2.15463 0,1.08559 -0.36081,1.9064 -1.08232,2.46243 -0.72152,0.55604 -1.78388,0.83405 -3.18725,0.83405 -0.51624,0 -1.07228,-0.0596 -1.66808,-0.17873 -0.5957,-0.11917 -1.21134,-0.29787 -1.84679,-0.53617 v -1.54896 c 0.60889,0.34422 1.20801,0.60238 1.79709,0.77449 0.5892,0.17209 1.16176,0.25816 1.71778,0.25816 0.86055,0 1.52576,-0.16881 1.99575,-0.50639 0.46998,-0.3376 0.70498,-0.8175 0.70498,-1.43973 0,-0.54279 -0.16878,-0.96976 -0.50634,-1.28086 -0.33768,-0.3111 -0.89042,-0.53948 -1.65817,-0.68511 l -0.91355,-0.17873 c -1.11207,-0.22506 -1.91961,-0.57588 -2.42265,-1.05248 -0.50316,-0.47661 -0.75468,-1.13853 -0.75468,-1.98583 0,-0.99291 0.3443,-1.77071 1.03263,-2.33335 0.68846,-0.56265 1.64166,-0.84398 2.8596,-0.84398 0.52959,0 1.06249,0.0464 1.59857,0.13905 0.5362,0.0927 1.08894,0.23169 1.65818,0.41703"
     id="path141"
     style="font-style:normal;font-weight:400;font-size:9px;font-family:'Sans Serif';fill:#000000;fill-opacity:1;stroke:none;stroke-width:1.27093;stroke-linecap:square;stroke-linejoin:bevel" />
  <path
     vector-effect="none"
     fill-rule="nonzero"
     d="m 555.42773,9.9208499 9.55085,2.1905101 -2.50353,10.91669 -9.55021,-2.19014 2.50289,-10.9170601"
     id="path144"
     style="font-style:normal;font-weight:400;font-size:9px;font-family:'Sans Serif';fill:#bebebe;fill-opacity:1;stroke:none;stroke-width:0.746679;stroke-linecap:square;stroke-linejoin:bevel" />
  <path
     vector-effect="none"
     fill-rule="nonzero"
     d="m 843.27359,412.53629 -14.90151,-11.56164 c -0.16707,-0.12869 -0.32169,-0.26398 -0.46499,-0.40392 l 3.8e-4,-6.5e-4 -13.60348,-13.20691 c -0.006,-0.004 -0.0114,-0.0101 -0.0171,-0.0151 l 3.7e-4,-6.4e-4 -13.8827,-13.5904 3.91739,-4.00165 -3.90947,4.00883 -14.23765,-13.88484 3.90947,-4.00883 -3.88516,4.0324 -14.65444,-14.1202 3.88515,-4.0324 -3.82418,4.09101 -15.38763,-14.38434 7.64837,-8.18203 15.38762,14.38435 c 0.0239,0.0199 0.0444,0.0395 0.063,0.0581 l -0.001,2.7e-4 14.65445,14.1202 c 0.0105,0.009 0.0191,0.0162 0.0257,0.0227 l -0.002,5.4e-4 14.23765,13.88485 c 0.006,0.003 0.008,0.006 0.01,0.007 l -0.002,-1.1e-4 13.88399,13.59115 -3.91517,4.00379 3.89841,-4.01954 13.60385,13.20627 -3.90488,4.0158 3.4338,-4.42411 14.90113,11.56229 -6.86722,8.84757"
     id="path148"
     style="font-style:normal;font-weight:400;font-size:9px;font-family:'Sans Serif';fill:#ff557f;fill-opacity:1;stroke:none;stroke-width:0.746679;stroke-linecap:square;stroke-linejoin:bevel" />
  <path
     vector-effect="none"
     fill-rule="nonzero"
     d="m 272.35454,583.85826 -10.26772,-0.75312 0.81921,-11.16997 10.26772,0.75312 -0.81921,11.16997"
     id="path152"
     style="font-style:normal;font-weight:400;font-size:9px;font-family:'Sans Serif';fill:#bebebe;fill-opacity:1;stroke:none;stroke-width:0.746679;stroke-linecap:square;stroke-linejoin:bevel" />
  <path
     vector-effect="none"
     fill-rule="nonzero"
     d="m 714.03053,359.74474 -10.04934,8.10388 -7.0307,-8.71851 10.04934,-8.10388 7.0307,8.71851"
     id="path156"
     style="font-style:normal;font-weight:400;font-size:9px;font-family:'Sans Serif';fill:#55aaff;fill-opacity:1;stroke:none;stroke-width:0.746679;stroke-linecap:square;stroke-linejoin:bevel" />
  <path
     vector-effect="none"
     fill-rule="nonzero"
     d="m 590.57895,47.18552 -8.45758,-2.88184 3.61197,-10.60174 8.45823,2.88221 -3.61262,10.60137"
     id="path160"
     style="font-style:normal;font-weight:400;font-size:9px;font-family:'Sans Serif';fill:#bebebe;fill-opacity:1;stroke:none;stroke-width:0.746679;stroke-linecap:square;stroke-linejoin:bevel" />
  <path
     vector-effect="none"
     fill-rule="nonzero"
     d="m 604.51422,31.95198 16.08191,8.23036 c 0.086,0.0437 0.17147,0.0898 0.25611,0.13884 2.67629,1.55002 3.58938,4.97637 2.03936,7.65265 -1.5504,2.67694 -4.97637,3.58938 -7.65266,2.03936 -2.67628,-1.55002 -3.58975,-4.97572 -2.03935,-7.65266 1.43775,-2.48244 4.48959,-3.44763 7.05776,-2.33816 l 0.66495,0.34025 16.24399,9.72639 c 0.13909,0.0831 0.27287,0.17098 0.4007,0.26314 l -6.4e-4,-3.8e-4 15.53215,11.20726 c 0.13106,0.094 0.25552,0.192 0.37311,0.29289 l -0.001,2.8e-4 14.55448,12.5005 c 0.11549,0.0971 0.22308,0.19737 0.32547,0.30068 l -0.002,-1.1e-4 13.58023,13.66718 c 0.0987,0.0977 0.19131,0.19708 0.2787,0.29947 l -0.002,-10e-5 12.65348,14.7414 c 0.0847,0.0965 0.164,0.19508 0.2388,0.29535 l -10e-4,9.2e-4 11.76517,15.75076 c 0.0737,0.0962 0.14196,0.19439 0.20677,0.29405 l -0.002,-10e-5 10.89873,16.72531 c 0.0644,0.096 0.12363,0.19326 0.17946,0.29204 l -10e-4,2.7e-4 10.03583,17.68035 c 0.055,0.0957 0.10659,0.19289 0.15511,0.29088 l -10e-4,2.7e-4 9.16175,18.61597 c 0.0474,0.0939 0.0904,0.18955 0.13134,0.28574 v 0 l 8.26163,19.47437 c 0.038,0.0893 0.0736,0.17983 0.10715,0.27088 v 0 l 7.28769,20.01477 c 0.0324,0.0886 0.0623,0.17846 0.0902,0.26883 v 0 l 6.20617,20.16584 -10.70461,3.29526 -6.20644,-20.16686 5.35193,-1.64698 -5.26171,1.91581 -7.28806,-20.01412 5.26208,-1.91646 -5.15493,2.18733 -8.26163,-19.47437 5.15493,-2.18734 -5.02424,2.47271 -9.16212,-18.61532 5.02461,-2.47335 -4.87053,2.76451 -10.03556,-17.67933 4.87053,-2.76451 -4.69182,3.05784 -10.89873,-16.72531 4.69144,-3.05719 -4.48634,3.35114 -11.76544,-15.75177 4.48634,-3.35115 -4.24893,3.64742 -12.65321,-14.74039 4.24893,-3.64741 -3.97227,3.94743 -13.58024,-13.66718 3.97228,-3.94743 -3.64885,4.24865 -14.55449,-12.50051 3.64885,-4.24865 -3.27675,4.54181 -15.53216,-11.20726 3.27639,-4.54116 -2.87671,4.80457 -16.24437,-9.72575 2.87708,-4.80522 -2.55156,4.98512 -16.08228,-8.22971 5.10247,-9.97061"
     id="path164"
     style="font-style:normal;font-weight:400;font-size:9px;font-family:'Sans Serif';fill:#55aaff;fill-opacity:1;stroke:none;stroke-width:0.746679;stroke-linecap:square;stroke-linejoin:bevel" />
  <path
     vector-effect="none"
     fill-rule="nonzero"
     d="m 274.58694,558.75859 -9.75764,-2.784 3.07365,-10.77028 9.75764,2.78399 -3.07365,10.77029"
     id="path168"
     style="font-style:normal;font-weight:400;font-size:9px;font-family:'Sans Serif';fill:#55aaff;fill-opacity:1;stroke:none;stroke-width:0.746679;stroke-linecap:square;stroke-linejoin:bevel" />
  <path
     vector-effect="none"
     fill-rule="nonzero"
     d="m 777.1175,310.92411 25.45907,-10.73894 2.17638,5.15894 -2.21417,-5.14286 25.41838,-10.94284 2.21418,5.14286 -2.21965,-5.14085 23.33531,-10.07408 c 0.0406,-0.0179 0.0814,-0.0348 0.12293,-0.0513 v 0 l 23.55754,-9.50876 c 0.0501,-0.021 0.10119,-0.0406 0.15252,-0.0592 v 0 l 23.08032,-8.54175 c 0.0668,-0.026 0.13976,-0.0476 0.20547,-0.0717 v 0 l 22.64494,-7.39521 c 0.0922,-0.0251 0.1772,-0.0527 0.26791,-0.0752 v 0 l 22.23369,-6.07421 c 0.1103,-0.0267 0.2131,-0.0552 0.3212,-0.078 v 0 l 21.8307,-4.58878 c 0.1205,-0.0294 0.2525,-0.0487 0.3762,-0.0686 v 0 l 21.3888,-2.97659 c 0.1418,-0.0214 0.2878,-0.0352 0.4313,-0.0444 l -4e-4,6.5e-4 20.89158,-1.26897 c 0.1539,-0.0124 0.3113,-0.0161 0.4722,-0.0108 l -3e-4,4.5e-4 20.3125,0.49076 c 0.1638,2.9e-4 0.3369,0.0143 0.5,0.0307 l 0.01,0.004 19.6324,2.26102 c 0.1782,0.02 0.3521,0.0475 0.5284,0.0859 l -4e-4,6.5e-4 18.853,4.02378 c 0.1781,0.0352 0.3642,0.0863 0.5391,0.14182 l 0.01,0.004 17.9506,5.76072 c 0.1892,0.0607 0.3731,0.13056 0.5517,0.20951 l -1e-4,1.9e-4 16.9227,7.4759 c 0.1855,0.0819 0.3655,0.17333 0.5464,0.27811 2.675,1.54927 3.5894,4.9763 2.0394,7.65266 -1.5501,2.67641 -4.9777,3.58862 -7.6527,2.03935 -2.675,-1.54927 -3.5894,-4.97624 -2.0393,-7.65265 1.3398,-2.31329 4.0821,-3.30872 6.5258,-2.5371 l 1.1333,0.50155 15.7432,9.15488 c 0.1871,0.10884 0.368,0.22861 0.543,0.35846 l -0.01,-0.003 14.3947,10.76796 c 0.1874,0.1383 0.3552,0.28068 0.5105,0.42959 l -5e-4,9e-4 12.8842,12.27365 c 0.1678,0.15731 0.3223,0.32263 0.4644,0.49435 l -6e-4,0.001 11.2373,13.62739 c 0.142,0.17191 0.2711,0.35126 0.3946,0.54037 l -4e-4,7.1e-4 9.4772,14.7891 c 0.1173,0.18479 0.2287,0.37997 0.3219,0.57659 l -2e-4,3.2e-4 7.6314,15.74134 c 0.1,0.20004 0.1814,0.4019 0.2517,0.60829 v 6e-5 l 5.718,16.48261 c 0.07,0.20703 0.1349,0.42246 0.1761,0.63442 v 0 l 3.726,17.00192 c 0.046,0.21829 0.082,0.43994 0.1064,0.6656 v 0 l 1.6528,17.28884 c 0.023,0.22824 0.029,0.45611 0.025,0.6867 l -7e-4,0.001 -0.4776,17.33202 c -0.01,0.23317 -0.028,0.46597 -0.061,0.70084 l -8e-4,0.001 -2.6434,17.10872 c -0.039,0.23177 -0.089,0.46691 -0.1543,0.69844 v 0.002 l -4.8022,16.60484 c -0.071,0.22715 -0.1521,0.45636 -0.2479,0.68132 v 0.002 l -6.9083,15.81648 c -0.078,0.19459 -0.1777,0.38119 -0.2851,0.56663 -0.017,0.0291 -0.034,0.0581 -0.05,0.0866 v 0 l -8.9016,14.7587 c -0.1325,0.214 -0.2693,0.42039 -0.4221,0.60973 l 3e-4,-6.4e-4 -10.7652,13.43253 c -0.1588,0.19968 -0.3267,0.38542 -0.5035,0.55656 l 7e-4,-0.001 -12.4458,11.86468 c -0.1888,0.1771 -0.3861,0.33895 -0.585,0.48867 l -0.01,-0.004 -13.9295,10.06135 c -0.2095,0.15308 -0.4331,0.28589 -0.6583,0.40655 l 4e-4,-6.4e-4 -15.188,8.04769 c -0.2271,0.1239 -0.4679,0.22688 -0.7092,0.31577 v 0 l -16.1749,5.87809 c -0.241,0.0882 -0.4885,0.15803 -0.7364,0.21374 v 0 l -16.8766,3.61825 c -0.245,0.0505 -0.4904,0.087 -0.7356,0.10807 v 0 l -17.2837,1.35643 c -0.235,0.0184 -0.4701,0.022 -0.7049,0.0103 v 0 l -17.4275,-0.82365 c -0.2117,-0.007 -0.4303,-0.0318 -0.6429,-0.0669 l 4e-4,-6.4e-4 -17.3652,-2.85324 c -0.1899,-0.0297 -0.3745,-0.0685 -0.5607,-0.1194 l -0.01,-0.004 -17.1458,-4.67714 c -0.1642,-0.0442 -0.3244,-0.0955 -0.4804,-0.15394 l 4e-4,-6.5e-4 -16.86098,-6.28625 c -0.1351,-0.0498 -0.2672,-0.10473 -0.3963,-0.16485 v 0 l -16.5433,-7.66919 c -0.109,-0.0502 -0.2157,-0.10425 -0.3206,-0.16154 l -0.01,-0.004 -16.248,-8.84944 c -0.046,-0.0249 -0.085,-0.0474 -0.1299,-0.0735 -0.045,-0.0262 -0.084,-0.0493 -0.1285,-0.0761 v 0 l -16.0141,-9.86417 c -0.07,-0.0431 -0.1391,-0.0875 -0.2007,-0.13009 v 0 l -15.84436,-10.73831 c -0.0559,-0.0376 -0.11106,-0.0764 -0.15938,-0.11215 l 3.7e-4,-6.5e-4 -15.74538,-11.50505 c -0.0422,-0.0314 -0.0909,-0.0665 -0.1328,-0.0985 l 0.007,0.003 -15.72357,-12.19825 c -0.0422,-0.0314 -0.0773,-0.0603 -0.11875,-0.0929 l 0.007,0.003 -15.70006,-12.86457 c -0.14657,-0.1194 -0.28218,-0.24281 -0.41405,-0.37269 l 0.007,0.002 -14.9673,-14.96408 7.91802,-7.92057 14.9673,14.96408 -3.95901,3.96028 3.54534,-4.33362 15.70006,12.86458 -3.5518,4.32988 3.4338,-4.42411 15.71711,12.19451 -3.4338,4.4241 3.30784,-4.51949 15.745,11.5057 -3.30746,4.51885 3.14199,-4.6354 15.84429,10.73831 -3.1424,4.63604 2.9352,-4.76987 16.014,9.86417 -2.9412,4.76548 2.6828,-4.91517 16.248,8.84945 -2.6767,4.91955 2.3557,-5.08044 16.54358,7.66855 -2.3557,5.08044 1.9529,-5.24903 16.8606,6.2869 -1.9593,5.24529 1.4729,-5.40362 17.1518,4.68153 -1.4725,5.40297 0.9057,-5.52676 17.3652,2.85324 -0.9125,5.52366 0.2635,-5.59495 17.434,0.82738 -0.2696,5.59057 -0.4349,-5.58095 17.2836,-1.35644 0.4349,5.58096 -1.1701,-5.47354 16.8701,-3.622 1.177,5.47663 -1.9131,-5.26354 16.1749,-5.87809 1.913,5.26355 -2.6219,-4.94842 15.188,-8.0477 2.6219,4.94842 -3.2801,-4.54187 13.936,-10.05761 3.2801,4.54187 -3.8644,-4.05449 12.4454,-11.86404 3.8648,4.05385 -4.374,-3.50232 10.7652,-13.43253 4.3676,3.49858 -4.7959,-2.89324 8.9016,-14.75869 4.7958,2.89323 -5.1314,-2.23937 6.9018,-15.82022 5.1375,2.24376 -5.38,-1.55676 4.8021,-16.60484 5.3801,1.55676 -5.5355,-0.85637 2.6431,-17.10808 5.5359,0.85573 -5.5974,-0.15359 0.4776,-17.33202 5.5973,0.1536 -5.5795,0.53066 -1.6532,-17.28819 5.5734,-0.53505 -5.4671,1.20065 -3.726,-17.00192 5.4736,-1.19691 -5.2909,1.83507 -5.718,-16.48254 5.2906,-1.83462 -5.0389,2.4429 -7.6316,-15.74101 5.039,-2.44323 -4.7174,3.02014 -9.4772,-14.7891 4.7174,-3.02014 -4.3233,3.56122 -11.2372,-13.62739 4.3233,-3.56128 -3.8596,4.05666 -12.8906,-12.27739 3.8659,-4.05286 -3.3559,4.48336 -14.3948,-10.76789 3.3559,-4.48342 -2.8195,4.83852 -15.7367,-9.1512 2.8131,-4.84226 -2.2602,5.12417 -16.9291,-7.47971 2.2666,-5.12037 -1.7151,5.33014 -17.9506,-5.76071 1.7086,-5.33382 -1.1698,5.47622 -18.853,-4.02371 1.1698,-5.47629 -0.6418,5.56283 -19.6324,-2.26101 0.6418,-5.56277 -0.1358,5.59785 -20.3124,-0.49089 0.1357,-5.59772 0.3428,5.59096 -20.89138,1.26877 -0.3362,-5.58761 0.7735,5.54755 -21.3887,2.97659 -0.7735,-5.54755 1.1562,5.48272 -21.8307,4.58878 -1.1497,-5.47898 1.4714,5.40036 -22.23328,6.07357 -1.47784,-5.40411 1.73966,5.3245 -22.64494,7.3952 -1.73966,-5.3245 1.94513,5.25281 -23.08356,8.53988 -1.94513,-5.2528 2.09958,5.1947 -23.55884,9.50801 -2.09635,-5.19283 2.21928,5.1415 -23.3343,10.07381 c -0.002,0.002 -0.004,0.002 -0.005,0.003 l -2.8e-4,-0.001 -25.41838,10.94284 c -0.0127,0.006 -0.0254,0.0111 -0.0382,0.0167 l 3.7e-4,-6.5e-4 -25.45842,10.73931 -4.35369,-10.31927"
     id="path172"
     style="font-style:normal;font-weight:400;font-size:9px;font-family:'Sans Serif';fill:#ff557f;fill-opacity:1;stroke:none;stroke-width:0.746679;stroke-linecap:square;stroke-linejoin:bevel" />
  <path
     vector-effect="none"
     fill-rule="evenodd"
     d="m 1088.6523,364.46302 v 1.5044 c -0.5827,-0.27106 -1.1316,-0.47775 -1.6468,-0.62006 -0.5149,-0.14234 -1.0164,-0.21346 -1.5042,-0.21346 -0.8403,0 -1.4874,0.16263 -1.9416,0.4879 -0.454,0.32528 -0.681,0.79287 -0.681,1.40276 0,0.50147 0.1525,0.88094 0.4574,1.13846 0.3049,0.25752 0.8776,0.46081 1.7178,0.60989 l 0.9352,0.20329 c 1.1385,0.21686 1.9822,0.59973 2.5311,1.14863 0.5489,0.54891 0.8234,1.28416 0.8234,2.20577 0,1.11136 -0.3693,1.95166 -1.108,2.52088 -0.7385,0.56924 -1.8263,0.85385 -3.263,0.85385 -0.5285,0 -1.0978,-0.0611 -1.7077,-0.18297 -0.6099,-0.12199 -1.24,-0.30494 -1.8906,-0.5489 v -1.58572 c 0.6235,0.35239 1.2367,0.61667 1.8398,0.79287 0.6031,0.17618 1.1893,0.26428 1.7585,0.26428 0.8809,0 1.5621,-0.17281 2.0432,-0.5184 0.4813,-0.34561 0.7217,-0.83691 0.7217,-1.47391 0,-0.55567 -0.1728,-0.99277 -0.5184,-1.31127 -0.3456,-0.31849 -0.9114,-0.55228 -1.6976,-0.70137 l -0.9351,-0.18297 c -1.1385,-0.2304 -1.9652,-0.58955 -2.4802,-1.07747 -0.515,-0.48791 -0.7726,-1.16555 -0.7726,-2.03296 0,-1.01649 0.3524,-1.81274 1.0573,-2.38874 0.7047,-0.57601 1.6805,-0.86401 2.9273,-0.86401 0.5422,0 1.0877,0.0474 1.6366,0.14234 0.549,0.0949 1.1148,0.2372 1.6975,0.42694 m 3.0901,-0.36594 h 1.5247 v 11.38462 h -1.5247 v -11.38462 m 4.5945,0 h 2.0737 l 5.0417,9.51428 v -9.51428 h 1.4842 v 11.38462 h -2.0738 l -5.0417,-9.51429 v 9.51429 h -1.4841 v -11.38462 m 11.6693,0 h 7.1967 v 1.3011 h -5.672 v 3.37473 h 5.428 v 1.28076 h -5.428 v 4.12693 h 5.794 v 1.3011 h -7.3187 v -11.38462 m 11.5879,-0.54891 v 15.61321 h -1.2807 v -15.61321 h 1.2807 m 7.3187,2.07362 -2.0939,5.65165 h 4.1879 l -2.094,-5.65165 m -0.8742,-1.52471 h 1.7484 l 4.3302,11.38462 h -1.6061 l -1.0367,-2.92747 h -5.1232 l -1.0368,2.92747 h -1.6264 l 4.3506,-11.38462 m 7.6846,-0.48791 h 1.4028 v 11.87253 h -1.4028 v -11.87253 m 4.1677,8.4978 v -5.16374 h 1.4027 v 5.12308 c 0,0.79964 0.1592,1.40275 0.4778,1.80934 0.3184,0.4066 0.7894,0.60989 1.4129,0.60989 0.7589,0 1.3585,-0.24056 1.7992,-0.72169 0.4403,-0.48114 0.6607,-1.14186 0.6607,-1.98215 v -4.83847 h 1.4027 v 8.53847 h -1.4027 v -1.32144 c -0.3389,0.52858 -0.732,0.91823 -1.1791,1.16897 -0.4474,0.25072 -0.9691,0.3761 -1.5655,0.3761 -0.9893,0 -1.7382,-0.30496 -2.2464,-0.91483 -0.5083,-0.6099 -0.7623,-1.5044 -0.7623,-2.68353 m 8.5383,-8.00989 h 1.6469 l 3.151,4.67583 3.1308,-4.67583 h 1.6669 l -4.0252,5.95659 v 5.42803 h -1.545 v -5.42803 l -4.0254,-5.95659 m 12.7468,7.09506 c -1.1249,0 -1.9076,0.12873 -2.3481,0.38626 -0.4404,0.25752 -0.6607,0.69798 -0.6607,1.32142 0,0.50148 0.166,0.8979 0.4981,1.18929 0.332,0.2914 0.776,0.43709 1.3316,0.43709 0.786,0 1.4129,-0.27445 1.8805,-0.82335 0.4675,-0.54889 0.7013,-1.28416 0.7013,-2.20578 v -0.30493 h -1.4027 m 2.8055,-0.58957 v 4.87913 h -1.4028 v -1.3011 c -0.3253,0.51501 -0.7251,0.89789 -1.1993,1.14863 -0.4745,0.25072 -1.0572,0.3761 -1.7485,0.3761 -0.8809,0 -1.5789,-0.24736 -2.0939,-0.74204 -0.5151,-0.49469 -0.7725,-1.14862 -0.7725,-1.96182 0,-0.96227 0.3219,-1.68736 0.9657,-2.17527 0.6437,-0.48791 1.6026,-0.73187 2.8765,-0.73187 h 1.972 v -0.14235 c 0,-0.65055 -0.2133,-1.15202 -0.6404,-1.5044 -0.4269,-0.35237 -1.0198,-0.52857 -1.7787,-0.52857 -0.488,0 -0.9623,0.0609 -1.4232,0.18296 -0.4609,0.122 -0.908,0.29818 -1.3416,0.52857 v -1.30109 c 0.5149,-0.2033 1.0129,-0.35238 1.4941,-0.44726 0.4811,-0.0949 0.9522,-0.14235 1.4129,-0.14235 1.2333,0 2.155,0.3185 2.7649,0.95549 0.6099,0.637 0.9148,1.60604 0.9148,2.90714 m 3.0901,-6.50549 h 6.0379 v 1.3011 h -4.6352 v 2.78516 c 0.2305,-0.0813 0.4575,-0.13891 0.6811,-0.1728 0.2236,-0.0338 0.444,-0.0509 0.6607,-0.0509 1.274,0 2.2836,0.34901 3.0292,1.04699 0.7454,0.69798 1.118,1.63654 1.118,2.81566 0,1.23333 -0.3828,2.18883 -1.1485,2.86649 -0.7658,0.67765 -1.8398,1.01648 -3.2223,1.01648 -0.4744,0 -0.9622,-0.0407 -1.4636,-0.12199 -0.5016,-0.0813 -1.0167,-0.20331 -1.5451,-0.36594 v -1.54507 c 0.4606,0.24396 0.9351,0.42694 1.4229,0.54892 0.488,0.12199 1.0029,0.18296 1.5451,0.18296 0.881,0 1.5789,-0.2304 2.0941,-0.69121 0.5149,-0.4608 0.7723,-1.09102 0.7723,-1.89066 0,-0.78608 -0.2574,-1.40951 -0.7723,-1.87033 -0.5152,-0.46081 -1.2131,-0.6912 -2.0941,-0.6912 -0.4066,0 -0.8131,0.044 -1.2198,0.13217 -0.4066,0.088 -0.8267,0.22701 -1.2604,0.41675 v -5.71263"
     id="path174"
     style="font-style:normal;font-weight:400;font-size:9px;font-family:'Sans Serif';fill:#000000;fill-opacity:1;stroke:none;stroke-width:1.3011;stroke-linecap:square;stroke-linejoin:bevel" />
  <path
     vector-effect="none"
     fill-rule="nonzero"
     d="m 380.51748,559.53579 -18.89549,3.54049 c -0.0599,0.011 -0.11941,0.0214 -0.17985,0.0304 v 0 l -19.86375,3.05649 c -0.0845,0.0132 -0.17046,0.0247 -0.256,0.0338 v 0 l -20.17748,2.15602 c -0.095,0.0106 -0.19015,0.0184 -0.28548,0.0236 v 0 l -19.90703,1.10205 c -0.0984,0.006 -0.19658,0.009 -0.29466,0.01 l -2.8e-4,-10e-4 -19.12284,0.0505 -0.0297,-11.20001 19.12284,-0.0505 0.0149,5.60001 -0.30942,-5.592 19.90702,-1.10204 0.30942,5.59199 -0.59555,-5.56875 20.17785,-2.15666 0.59491,5.56837 -0.85155,-5.53494 19.86374,-3.0565 0.85156,5.53495 -1.03178,-5.50386 18.89586,-3.54113 2.06281,11.009"
     id="path177"
     style="font-style:normal;font-weight:400;font-size:9px;font-family:'Sans Serif';fill:#55aaff;fill-opacity:1;stroke:none;stroke-width:0.746679;stroke-linecap:square;stroke-linejoin:bevel" />
  <path
     vector-effect="none"
     fill-rule="nonzero"
     d="m 559.43434,39.21812 -8.82549,-1.72813 2.15147,-10.99116 8.82586,1.72748 -2.15184,10.99181"
     id="path181"
     style="font-style:normal;font-weight:400;font-size:9px;font-family:'Sans Serif';fill:#bebebe;fill-opacity:1;stroke:none;stroke-width:0.746679;stroke-linecap:square;stroke-linejoin:bevel" />
  <path
     vector-effect="none"
     fill-rule="nonzero"
     d="m 756.1205,245.55702 1.2152,9.19186 -11.10362,1.46786 -1.2152,-9.19186 11.10362,-1.46786"
     id="path185"
     style="font-style:normal;font-weight:400;font-size:9px;font-family:'Sans Serif';fill:#55aaff;fill-opacity:1;stroke:none;stroke-width:0.746679;stroke-linecap:square;stroke-linejoin:bevel" />
  <path
     vector-effect="none"
     fill-rule="nonzero"
     d="m 337.67386,100.00126 7.20153,-11.21409 c 0.044,-0.0685 0.089,-0.13572 0.13471,-0.19982 l -3.7e-4,6.5e-4 7.80858,-11.0808 c 0.0599,-0.087 0.12148,-0.16952 0.18455,-0.24862 l 2.7e-4,0.001 8.94076,-11.31039 c 0.0835,-0.10694 0.16904,-0.20842 0.25693,-0.30506 l 5.5e-4,0.002 10.19878,-11.17026 c 0.11167,-0.12429 0.22719,-0.24031 0.34665,-0.34974 l -1e-4,0.002 11.57546,-10.6361 c 0.14369,-0.13337 0.29175,-0.25643 0.44523,-0.36945 l 2.7e-4,10e-4 13.03391,-9.70082 c 0.17367,-0.13152 0.35422,-0.24958 0.5398,-0.35695 l 2.7e-4,10e-4 14.49838,-8.38411 c 0.19877,-0.11526 0.40275,-0.21715 0.61295,-0.30595 v 0 l 15.87597,-6.74754 c 0.21094,-0.0901 0.42672,-0.16618 0.64705,-0.22926 v 0 l 17.08748,-4.90171 c 0.20744,-0.0602 0.41841,-0.10713 0.63136,-0.14257 v 0 l 18.05183,-2.9807101 c 0.18625,-0.031 0.37392,-0.0526 0.56264,-0.0641 l 6.5e-4,3.8e-4 18.5018,-1.15486 c 0.131,-0.009 0.26273,-0.0127 0.39414,-0.0116 l 10e-4,7.5e-4 18.0705,0.14852 -0.0917,11.1995701 -18.07152,-0.14824 0.0464,-5.59992 0.34871,5.58972 -18.50245,1.15448 -0.34805,-5.58934 0.91236,5.52529 -18.05183,2.98071 -0.91237,-5.52529 1.54437,5.3831 -17.08748,4.9017 -1.54437,-5.3831 2.1904,5.15412 -15.87597,6.74754 -2.19077,-5.15347 2.80372,4.84751 -14.49838,8.3841 -2.80372,-4.84751 3.34444,4.49196 -13.03428,9.70146 -3.34407,-4.4926 3.78892,4.1238 -11.57546,10.6361 -3.78892,-4.12379 4.13547,3.77572 -10.19878,11.17026 -4.13547,-3.77572 4.39295,3.4727 -8.94077,11.31038 -4.39294,-3.4727 4.57739,3.22575 -7.80794,11.08117 -4.57841,-3.22547 4.71275,3.0263 -7.20218,11.2137 -9.42383,-6.05249"
     id="path189"
     style="font-style:normal;font-weight:400;font-size:9px;font-family:'Sans Serif';fill:#bebebe;fill-opacity:1;stroke:none;stroke-width:0.746679;stroke-linecap:square;stroke-linejoin:bevel" />
  <path
     vector-effect="none"
     fill-rule="nonzero"
     d="m 509.96913,19.73746 9.09428,1.07184 -1.31083,11.12339 -9.09428,-1.07183 1.31083,-11.1234"
     id="path193"
     style="font-style:normal;font-weight:400;font-size:9px;font-family:'Sans Serif';fill:#bebebe;fill-opacity:1;stroke:none;stroke-width:0.746679;stroke-linecap:square;stroke-linejoin:bevel" />
  <path
     vector-effect="none"
     fill-rule="nonzero"
     d="m 690.89948,368.79123 -8.1483,6.44544 -6.94835,-8.78471 8.14793,-6.4448 6.94872,8.78407"
     id="path197"
     style="font-style:normal;font-weight:400;font-size:9px;font-family:'Sans Serif';fill:#55aaff;fill-opacity:1;stroke:none;stroke-width:0.746679;stroke-linecap:square;stroke-linejoin:bevel" />
  <path
     vector-effect="none"
     fill-rule="nonzero"
     d="m 401.68552,565.11358 -9.10858,2.34374 -2.79107,-10.84662 9.10896,-2.34439 2.79069,10.84727"
     id="path201"
     style="font-style:normal;font-weight:400;font-size:9px;font-family:'Sans Serif';fill:#55aaff;fill-opacity:1;stroke:none;stroke-width:0.746679;stroke-linecap:square;stroke-linejoin:bevel" />
  <path
     vector-effect="none"
     fill-rule="nonzero"
     d="m 392.31356,544.2161 -8.86994,2.53805 -3.08057,-10.76837 8.86955,-2.53741 3.08096,10.76773"
     id="path205"
     style="font-style:normal;font-weight:400;font-size:9px;font-family:'Sans Serif';fill:#bebebe;fill-opacity:1;stroke:none;stroke-width:0.746679;stroke-linecap:square;stroke-linejoin:bevel" />
  <path
     vector-effect="none"
     fill-rule="nonzero"
     d="m 758.51578,254.81798 -1.13712,-8.52364 11.10213,-1.48167 1.13712,8.52365 -11.10213,1.48166"
     id="path209"
     style="font-style:normal;font-weight:400;font-size:9px;font-family:'Sans Serif';fill:#bebebe;fill-opacity:1;stroke:none;stroke-width:0.746679;stroke-linecap:square;stroke-linejoin:bevel" />
  <path
     vector-effect="none"
     fill-rule="nonzero"
     d="m 233.23929,570.84827 -8.97279,-2.53307 3.04343,-10.77916 8.97241,2.53371 -3.04305,10.77852"
     id="path213"
     style="font-style:normal;font-weight:400;font-size:9px;font-family:'Sans Serif';fill:#bebebe;fill-opacity:1;stroke:none;stroke-width:0.746679;stroke-linecap:square;stroke-linejoin:bevel" />
  <path
     vector-effect="none"
     fill-rule="nonzero"
     d="m 680.36448,386.51182 -21.08493,16.30011 c -0.01,0.009 -0.0187,0.0159 -0.0268,0.0224 l -9.2e-4,-0.001 -21.02363,16.04827 c -0.009,0.008 -0.0169,0.0144 -0.0247,0.0202 l -9.2e-4,-10e-4 -20.44709,15.42526 -6.74573,-8.94089 20.44811,-15.42553 3.37254,4.47026 -3.39812,-4.45142 21.02429,-16.0479 3.39811,4.45142 -3.42584,-4.43037 21.08595,-16.30038 6.84964,8.86129"
     id="path217"
     style="font-style:normal;font-weight:400;font-size:9px;font-family:'Sans Serif';fill:#55aaff;fill-opacity:1;stroke:none;stroke-width:0.746679;stroke-linecap:square;stroke-linejoin:bevel" />
  <path
     vector-effect="none"
     fill-rule="nonzero"
     d="m 763.8292,262.50134 0.85196,23.49582 c 0.002,0.0262 0.002,0.0524 0.003,0.0778 l -3.7e-4,6.5e-4 0.55231,24.79088 -11.19776,0.24931 -0.55232,-24.79088 5.5987,-0.12433 -5.59684,0.20307 -0.85196,-23.49582 11.19303,-0.40652"
     id="path221"
     style="font-style:normal;font-weight:400;font-size:9px;font-family:'Sans Serif';fill:#55aaff;fill-opacity:1;stroke:none;stroke-width:0.746679;stroke-linecap:square;stroke-linejoin:bevel" />
  <path
     vector-effect="none"
     fill-rule="nonzero"
     d="m 570.91897,21.12426 8.97127,2.2854 -2.76462,10.85349 -8.97192,-2.28578 2.76527,-10.85311"
     id="path225"
     style="font-style:normal;font-weight:400;font-size:9px;font-family:'Sans Serif';fill:#bebebe;fill-opacity:1;stroke:none;stroke-width:0.746679;stroke-linecap:square;stroke-linejoin:bevel" />
  <path
     vector-effect="none"
     fill-rule="nonzero"
     d="m 237.89314,552.65958 -8.79979,-2.29395 2.82519,-10.83739 8.79914,2.29358 -2.82454,10.83776"
     id="path229"
     style="font-style:normal;font-weight:400;font-size:9px;font-family:'Sans Serif';fill:#55aaff;fill-opacity:1;stroke:none;stroke-width:0.746679;stroke-linecap:square;stroke-linejoin:bevel" />
  <path
     vector-effect="none"
     fill-rule="nonzero"
     d="m 590.05698,18.83216 8.65669,2.97903 -3.64442,10.59072 -8.65669,-2.97903 3.64442,-10.59072"
     id="path233"
     style="font-style:normal;font-weight:400;font-size:9px;font-family:'Sans Serif';fill:#bebebe;fill-opacity:1;stroke:none;stroke-width:0.746679;stroke-linecap:square;stroke-linejoin:bevel" />
  <path
     vector-effect="none"
     fill-rule="nonzero"
     d="M 513.52272,-5.2006799e-4 522.82426,1.2647099 521.31428,12.3625 512.01274,11.09727 513.52272,-5.2006799e-4"
     id="path237"
     style="font-style:normal;font-weight:400;font-size:9px;font-family:'Sans Serif';fill:#bebebe;fill-opacity:1;stroke:none;stroke-width:0.746679;stroke-linecap:square;stroke-linejoin:bevel" />
  <path
     vector-effect="none"
     fill-rule="nonzero"
     d="m 255.49712,566.60355 -11.3086,-2.01606 1.96561,-11.02633 11.3086,2.01606 -1.96561,11.02633"
     id="path241"
     style="font-style:normal;font-weight:400;font-size:9px;font-family:'Sans Serif';fill:#55aaff;fill-opacity:1;stroke:none;stroke-width:0.746679;stroke-linecap:square;stroke-linejoin:bevel" />
  <path
     vector-effect="none"
     fill-rule="nonzero"
     d="m 594.90739,451.06855 -18.25333,12.81894 c -0.0218,0.0167 -0.0438,0.0324 -0.0651,0.0469 l -9.1e-4,-0.001 -18.68737,12.72806 c -0.0329,0.0241 -0.0654,0.0458 -0.0981,0.0666 l 10e-5,-0.002 -18.81839,12.24663 c -0.0402,0.0276 -0.0809,0.0532 -0.12123,0.0782 l -2.7e-4,-0.001 -18.76712,11.53684 c -0.0481,0.0308 -0.0956,0.0594 -0.14415,0.0865 l -2.8e-4,-0.001 -18.73574,10.75859 c -0.0548,0.0321 -0.10993,0.0632 -0.16557,0.0922 l -6.5e-4,-3.8e-4 -18.76955,9.94689 c -0.0626,0.0336 -0.12513,0.0656 -0.18857,0.0961 l -2.7e-4,-10e-4 -18.87321,9.10682 c -0.0696,0.0339 -0.14023,0.0663 -0.21033,0.0965 v 0 l -19.01914,8.22501 c -0.0749,0.0325 -0.14976,0.0634 -0.22615,0.0925 l 3.8e-4,-6.4e-4 -18.99208,7.2501 c -0.0541,0.0204 -0.10823,0.0409 -0.16288,0.0593 v 0 l -18.27492,6.33664 -3.6695,-10.58138 18.27529,-6.33729 1.83443,5.2905 -1.99731,-5.23125 18.99207,-7.2501 1.99759,5.23227 -2.22336,-5.14041 19.01951,-8.22566 2.22271,5.14004 -2.43342,-5.0429 18.87321,-9.10682 2.43407,5.04328 -2.62291,-4.94815 18.77019,-9.94652 2.62226,4.94778 -2.78913,-4.85632 18.73574,-10.75858 2.78876,4.85696 -2.93253,-4.77111 18.76712,-11.53683 2.93291,4.77046 -3.05505,-4.69365 18.81801,-12.24598 3.05505,4.69365 -3.15239,-4.62837 18.68736,-12.72806 3.1524,4.62837 -3.21842,-4.58291 18.25231,-12.81866 6.43786,9.16554"
     id="path245"
     style="font-style:normal;font-weight:400;font-size:9px;font-family:'Sans Serif';fill:#55aaff;fill-opacity:1;stroke:none;stroke-width:0.746679;stroke-linecap:square;stroke-linejoin:bevel" />
  <path
     vector-effect="none"
     fill-rule="nonzero"
     d="m 603.0276,433.3041 -8.12525,5.66668 -6.40643,-9.18704 8.12487,-5.66603 6.40681,9.18639"
     id="path249"
     style="font-style:normal;font-weight:400;font-size:9px;font-family:'Sans Serif';fill:#55aaff;fill-opacity:1;stroke:none;stroke-width:0.746679;stroke-linecap:square;stroke-linejoin:bevel" />
  <path
     vector-effect="none"
     fill-rule="nonzero"
     d="m 704.62598,386.69179 -8.17779,6.43527 -6.92658,-8.80144 8.17778,-6.43527 6.92659,8.80144"
     id="path253"
     style="font-style:normal;font-weight:400;font-size:9px;font-family:'Sans Serif';fill:#bebebe;fill-opacity:1;stroke:none;stroke-width:0.746679;stroke-linecap:square;stroke-linejoin:bevel" />
  <path
     vector-effect="none"
     fill-rule="nonzero"
     d="m 529.92978,11.46754 16.59138,3.53372 -2.3339,10.95454 -16.59036,-3.53399 2.33288,-10.95427"
     id="path257"
     style="font-style:normal;font-weight:400;font-size:9px;font-family:'Sans Serif';fill:#bebebe;fill-opacity:1;stroke:none;stroke-width:0.746679;stroke-linecap:square;stroke-linejoin:bevel" />
  <path
     vector-effect="none"
     fill-rule="nonzero"
     d="m 847.27919,431.08161 -6.27036,-6.29182 7.93516,-7.90547 6.27036,6.29182 -7.93516,7.90547"
     id="path261"
     style="font-style:normal;font-weight:400;font-size:9px;font-family:'Sans Serif';fill:#ff557f;fill-opacity:1;stroke:none;stroke-width:0.746679;stroke-linecap:square;stroke-linejoin:bevel" />
  <path
     vector-effect="none"
     fill-rule="nonzero"
     d="m 756.22667,324.9344 -16.73363,14.14607 c -0.0263,0.0245 -0.0517,0.046 -0.077,0.0659 l -2.7e-4,-10e-4 -16.52511,13.46868 -7.07611,-8.68182 16.52511,-13.46869 3.53805,4.34091 -3.61557,-4.27708 16.73363,-14.14607 7.23088,8.55315"
     id="path265"
     style="font-style:normal;font-weight:400;font-size:9px;font-family:'Sans Serif';fill:#55aaff;fill-opacity:1;stroke:none;stroke-width:0.746679;stroke-linecap:square;stroke-linejoin:bevel" />
  <metadata
     id="metadata270">
    <rdf:RDF>
      <cc:Work
         rdf:about="">
        <dc:title>Qt SVG Document</dc:title>
      </cc:Work>
    </rdf:RDF>
  </metadata>
</svg>
